PathFileType	4	(X/Y/Z)	C:/Users/beibeiliu/ov580/test_trc/User3\sequence.29_training_dense_right.trc
DataRate	CameraRate	NumFrames	NumMarkers	Units	OrigDataRate	OrigDataStartFrame	OrigNumFrames
120	120	18	19	mm	120	1	86
Frame#	Time	ThumbCMC			ThumbMCP			ThumbIP			ThumbTip			IndexMCP			IndexPIP			IndexTip			MiddleMCP			MiddlePIP			MiddleTip			RingMCP			RingPIP			RingTip			PinkyMCP			PinkyPIP			PinkyTip			BackHand1			BackHand2			BackHand3	
		X0	Y0	Z0	X1	Y1	Z1	X2	Y2	Z2	X3	Y3	Z3	X4	Y4	Z4	X5	Y5	Z5	X6	Y6	Z6	X7	Y7	Z7	X8	Y8	Z8	X9	Y9	Z9	X10	Y10	Z10	X11	Y11	Z11	X12	Y12	Z12	X13	Y13	Z13	X14	Y14	Z14	X15	Y15	Z15	X16	Y16	Z16	X17	Y17	Z17	X18	Y18	Z18	
0	0	91.484	11.7946	-2.70309	72.6642	22.3347	-26.5916	55.2533	23.3852	-51.139	42.8382	28.2404	-65.5114	73.6221	-31.6529	-69.4431	58.6409	-44.8048	-90.4893	47.5197	-51.7301	-107.943	83.9062	-51.4189	-71.789	66.6359	-58.9758	-89.5641	52.4417	-72.8084	-113.385	90.4504	-70.1898	-54.9034	75.1983	-87.344	-66.5865	58.5414	-108.539	-75.5146	102.141	-77.3328	-38.937	91.1643	-94.1256	-48.8321	81.2799	-110.722	-57.5546	124.76	-36.0962	-27.0811	139.927	-19.8484	-4.46354	113.284	-2.39452	-20.9327	
1	0.00833333	105.689	22.5247	-9.42194	96.0694	32.5774	-28.9294	82.4992	37.9555	-58.8602	74.4507	50.2773	-71.5834	78.3108	-17.3672	-69.8785	62.4497	-23.813	-92.2434	49.9348	-35.3251	-110.543	81.683	-35.4948	-70.4226	62.4112	-42.3914	-93.0499	47.3109	-51.8977	-115.891	77.7114	-56.4438	-54.1532	62.919	-71.8077	-59.9375	36.8509	-82.1228	-71.884	86.9847	-66.0236	-34.2586	70.1801	-79.4323	-45.0251	52.7132	-88.222	-55.6669	122.194	-35.3624	-23.2951	139.996	-24.5166	-0.113904	122.713	-0.147557	-23.2781	
2	0.0166667	123.889	26.4163	-5.98131	116.195	33.9608	-32.8672	109.67	44.2635	-61.573	105.463	52.8825	-77.6038	85.8063	-9.2093	-70.9053	72.0932	-9.05975	-91.0682	57.9574	-18.4753	-109.937	80.0536	-27.6376	-74.0997	64.475	-28.224	-93.5625	47.0874	-34.6202	-118.32	71.3084	-46.7512	-50.2988	52.0436	-50.5318	-59.6101	24.8985	-56.3923	-69.1989	74.8585	-55.5456	-33.7361	56.4968	-62.0569	-40.3182	39.5557	-66.5124	-51.447	117.913	-38.2117	-20.7381	136.432	-34.8829	2.40885	131.822	-5.75909	-19.8709	
3	0.025	137.208	17.2854	-8.70021	136.178	27.2141	-31.6391	132.048	34.1923	-63.5376	133.187	45.619	-80.3575	96.6593	-7.45644	-70.916	80.5458	-7.07321	-95.7351	67.1601	-13.2979	-113.036	83.1089	-29.3744	-70.9012	67.2988	-26.4847	-93.7528	51.9296	-27.2548	-117.061	67.2636	-38.9528	-51.5749	44.8853	-39.3254	-61.2917	21.3713	-35.1726	-71.2444	68.0903	-47.893	-31.0498	50.2984	-48.2819	-38.5052	27.6112	-49.8935	-52.8572	115.574	-42.0347	-19.119	131.105	-41.5578	9.6277	135.195	-13.6592	-20.9979	
4	0.0333333	148.664	1.18424	-8.36449	149.258	8.99109	-30.6747	150.835	15.9768	-61.2086	153.931	24.7684	-80.4715	104.554	-19.1374	-72.9655	96.1591	-14.8297	-94.3769	80.5409	-17.9371	-114.103	92.8605	-32.5914	-68.495	76.2876	-28.9276	-94.4147	65.3491	-28.2874	-118.212	72.7132	-39.3741	-47.5815	49.2185	-33.6123	-64.4801	25.7727	-27.5497	-76.4649	66.4022	-47.4531	-27.1731	46.603	-43.4698	-42.7294	27.68	-40.4016	-54.7039	113.59	-51.1102	-11.6342	125.7	-55.9155	15.2146	137.841	-32.5662	-11.624	
5	0.0416667	154.929	-16.0204	-5.13891	157.071	-10.3798	-27.2302	161.902	-4.07429	-53.6595	167.234	1.9126	-74.3439	115.893	-31.1312	-70.2842	102.693	-31.3829	-93.1447	95.8896	-28.6535	-118.813	97.3001	-46.1395	-65.5867	85.2344	-42.7304	-89.5953	76.8827	-39.5499	-116.571	75.9183	-46.2792	-49.7373	56.1693	-42.2711	-62.0121	38.7755	-30.4578	-77.6367	65.6451	-52.3145	-28.4923	53.8671	-46.6213	-40.8738	31.6668	-43.7459	-57.3679	108.486	-63.8759	-7.61352	123	-64.7215	17.3714	138.696	-47.8016	-10.1676	
6	0.05	158.216	-28.8222	1.57617	167.689	-23.7094	-21.9435	174.345	-19.7914	-52.2879	180.232	-13.2017	-68.8897	122.44	-45.5041	-66.0351	115.493	-43.3198	-92.3639	102.16	-45.968	-112.638	106.001	-57.3874	-64.071	95.1133	-54.2795	-87.6329	85.2764	-54.0602	-116.15	78.9997	-58.9775	-45.6305	62.2063	-52.7499	-60.7244	44.4918	-42.5077	-76.9563	73.7361	-60.1649	-25.1104	54.7157	-55.1705	-39.8005	38.2078	-50.763	-57.6488	115.776	-73.2265	-2.13723	127.062	-73.1599	23.8774	144.171	-58.0993	-4.7794	
7	0.0583333	165.198	-37.2234	9.56919	172.864	-34.6314	-17.4552	180.041	-31.6249	-46.1383	187.955	-27.343	-65.5963	130.686	-56.356	-63.2879	119.276	-56.1619	-89.0962	111.148	-57.5916	-112.881	109.015	-67.8377	-61.3552	101.028	-65.0912	-85.9549	89.7125	-67.8958	-116.314	83.2019	-66.6663	-43.0637	66.7862	-61.0021	-59.5416	54.1788	-50.7119	-78.1187	78.4146	-68.4373	-21.6439	64.4453	-62.7916	-36.6589	45.7992	-61.1318	-54.6618	118.027	-82.3713	-2.22872	129.65	-82.0809	30.369	151.224	-67.1002	1.90578	
8	0.0666667	165.546	-47.245	8.991	178.602	-43.4637	-13.6158	185.153	-41.5248	-40.3512	194.513	-36.9026	-60.0005	133.66	-65.0361	-60.94	127.953	-64.9083	-85.9244	118.961	-66.3868	-106.116	114.088	-76.4157	-57.784	105.438	-73.8641	-85.9408	100.13	-74.1607	-109.719	92.6326	-73.1512	-40.2492	76.3883	-66.1863	-57.8416	57.3341	-56.2896	-79.234	80.2828	-74.3038	-21.7864	68.3938	-66.9434	-38.5437	50.6099	-65.5529	-51.0585	117.517	-90.4792	3.49428	127.147	-89.363	31.7001	151.025	-75.3196	7.34512	
9	0.075	172.409	-48.7461	14.2946	181.888	-45.6343	-12.8221	190.406	-44.4136	-38.899	199.815	-41.48	-59.1994	136.442	-68.7976	-58.9979	134.836	-65.7041	-82.3733	123.373	-67.6996	-108.496	120.486	-77.5546	-60.5027	110.793	-75.8686	-85.2735	106.495	-76.7573	-110.357	95.2278	-74.9083	-39.6309	81.2888	-67.2704	-58.2559	64.1536	-57.4902	-78.7173	81.5175	-76.0616	-21.2896	71.3026	-69.1162	-37.9603	58.7105	-66.6018	-55.3373	124.253	-87.7064	5.13201	128.658	-90.2499	31.6099	153.112	-79.7535	9.75149	
10	0.0833333	170.86	-48.9249	12.7106	185.437	-45.7318	-14.0592	194.712	-42.297	-40.4591	201.184	-39.7194	-59.9995	142.019	-65.9854	-56.108	135.95	-64.4039	-85.9034	124.863	-67.4233	-104.899	120.42	-76.466	-58.6501	112.292	-75.9106	-80.8189	106.461	-75.7293	-110.179	94.2197	-73.2314	-41.9824	81.828	-66.7208	-58.5431	65.8991	-56.4235	-78.3936	82.8352	-73.8625	-21.2376	73.7662	-67.2805	-38.0877	58.8089	-64.7377	-58.1179	126.482	-86.9028	6.86477	133.379	-89.7675	34.8947	154.873	-75.7738	10.2841	
11	0.0916667	172.121	-43.8187	15.769	179.266	-42.4039	-11.6115	191.539	-40.2081	-43.4928	202.024	-36.0949	-61.7741	141.686	-62.2843	-59.4811	133.575	-62.5728	-84.8505	124.767	-62.8636	-108.75	123.092	-72.9171	-56.748	112.729	-72.8672	-83.249	108.736	-72.4637	-111.872	94.9722	-71.6321	-42.2263	80.3856	-64.7333	-58.0793	64.7417	-52.7003	-80.2377	85.9399	-71.0073	-26.3672	70.9464	-66.2717	-40.8194	56.6268	-63.2784	-56.0586	122.874	-86.4059	2.1175	132.83	-86.7793	32.6293	156.666	-72.0213	4.59447	
12	0.1	171.821	-42.6648	13.2994	177.608	-40.6391	-13.1674	187.693	-36.9027	-39.4028	197.103	-33.7559	-58.5872	139.861	-62.331	-62.5502	131.082	-61.4594	-85.007	126.71	-60.3827	-106.316	120.085	-72.7004	-62.2673	107.761	-72.1541	-85.5406	102.928	-72.0902	-111.877	93.5147	-70.5553	-44.239	75.4461	-64.0627	-60.6301	63.914	-52.8683	-81.3349	81.9374	-72.8655	-25.5278	70.987	-66.2817	-40.4899	56.7555	-62.2354	-57.4226	124.196	-87.0775	1.97843	130.95	-85.5596	31.2455	156.707	-73.197	7.32103	
13	0.108333	165.426	-44.7774	11.3207	176.446	-40.3704	-14.6468	183.949	-38.813	-41.4384	194.237	-33.089	-58.0145	135.004	-63.0302	-58.6608	128.13	-62.2584	-84.4992	121.438	-61.8526	-111.132	114.776	-75.4696	-56.7627	107.015	-72.629	-81.773	99.1323	-73.4414	-113.995	88.4564	-71.6153	-43.4798	79.2022	-63.2245	-61.1218	61.4075	-54.916	-77.1694	79.7358	-74.0785	-21.5565	66.0933	-66.5021	-40.3709	56.5482	-63.1475	-55.0524	122.979	-86.1649	4.85129	128.774	-86.7247	30.1482	155.344	-73.5074	6.9356	
14	0.116667	165.966	-44.5156	11.1854	178.627	-39.4849	-12.787	183.942	-38.3394	-40.9888	194.701	-34.9798	-62.7673	134.984	-63.23	-62.4355	125.569	-61.6459	-86.2878	121.43	-60.1953	-108.65	116.118	-72.5289	-59.0546	105.051	-72.0874	-80.5313	98.4157	-71.49	-112.741	87.2733	-71.4487	-41.1531	73.1635	-62.955	-61.8484	58.2848	-51.2931	-80.4977	79.4359	-72.4983	-21.4514	64.2473	-68.5178	-35.542	51.3669	-63.3075	-56.5047	117.694	-87.2399	5.08761	129.763	-86.6557	31.796	150.782	-72.7281	4.35512	
15	0.125	166.513	-46.752	10.9719	174.6	-42.2157	-12.8379	183.899	-39.9754	-40.0115	191.177	-36.2801	-58.8322	134.542	-64.377	-61.056	126.909	-61.6052	-86.7433	121.358	-61.3446	-108.856	113.023	-74.8533	-59.9392	106.282	-72.0706	-85.1274	99.2684	-72.2569	-111.287	89.6105	-71.4822	-43.5078	71.9896	-66.9773	-56.3523	55.7136	-54.2523	-77.4859	77.6591	-74.5046	-21.3969	63.9199	-69.0269	-35.6929	51.5178	-65.2171	-54.7995	116.26	-90.5321	7.06604	124.816	-90.8205	31.7665	150.303	-74.5112	8.43655	
16	0.133333	161.8	-48.1026	13.1382	174.344	-44.1433	-13.7451	179.05	-43.5961	-43.1284	189.702	-38.5271	-61.3372	132.125	-65.4913	-61.384	126.841	-62.2628	-85.2566	115.504	-64.2519	-109.021	113.296	-76.445	-56.6724	104.517	-72.8363	-81.4425	92.6642	-74.5485	-108.128	89.6843	-73.8159	-38.6722	70.8616	-65.6866	-58.8788	54.8801	-55.0003	-78.3755	76.6977	-76.4309	-18.5259	62.9683	-67.9351	-38.1191	50.0093	-65.0885	-55.556	117.01	-91.342	7.29957	125.303	-92.0952	35.4342	148.237	-76.0575	9.96823	
17	0.141667	163.026	-50.1417	10.9843	168.974	-46.6636	-16.0283	180.004	-42.7538	-40.8289	187.321	-39.3275	-58.2809	127.909	-68.3779	-60.6835	121.945	-65.7937	-84.1897	114.33	-65.3168	-106.196	107.438	-78.3786	-58.296	99.2836	-75.541	-83.4011	94.027	-74.9811	-110.776	86.7427	-74.7706	-41.574	66.132	-67.2725	-58.3823	55.113	-57.1465	-76.2661	75.5681	-76.735	-22.6568	60.5596	-70.0029	-37.6798	45.9167	-69.7682	-51.3984	114.425	-93.7941	7.50259	125.094	-93.4297	37.0682	149.366	-76.7042	8.59427	
